# xmcd
#
# Track frame offsets:
#	182
#	13890
#	29925
#	40215
#	57772
#	72860
#	86452
#	96220
#	106312
#	119050
#	129862
#	138460
#	154962
#	173875
#	188867
#	197732
#	212072
#	225075
#	239990
#	261090
#	269802
#	281885
#	290262
#	300922
#	312670
#	324460
#
# Disc length: 4538 seconds
# Revision: 5
# Processed by: cddbd v1.5.2PL0 Copyright (c) Steve Scherf et al.
# Submitted via: dBpowerAMP V12.0
#
DISCID=8e11b81a
DTITLE=Jam - Extras [Polydor 314 513 177-2]
DYEAR=1992
DGENRE=Punk
TTITLE0=The Dreams Of Children [double A-sided single, Going Underground]
TTITLE1=Tales From The Riverbank [Absolute Beginners b-side]
TTITLE2=Liza Radley [1980 demo]
TTITLE3=Move On Up (Curtis Mayfield) [Beat Surrender single]
TTITLE4=Shopping [Beat Surrender single]
TTITLE5=Smithers-Jones [When You're Young b-side]
TTITLE6=Pop Art Poem [1980 demo, Jam Fan club flexi]
TTITLE7=Boy About Town [1992 remix, Jam Fan club flexi]
TTITLE8=A Solid Bond In Your Heart [1982 demo]
TTITLE9=No One In The World [1980 demo]
TTITLE10=And Your Bird Can Sing (Beatles) [1980 demo]
TTITLE11=Burning Sky [1979]
TTITLE12=Thick As Thieves [1979]
TTITLE13=Disguises (Who) [1992 remix, Funeral Pyre b-side]
TTITLE14=Get Yourself Together (Small Faces) [1992 remix, 1981 demo]
TTITLE15=The Butterfly Collector [Strange Town b-side]
TTITLE16=The Great Depression [Just Who Is The 5 O'clock Hero b-side]
TTITLE17=Stoned Out Of My Mind (Chi-Lites) [Beat Surrender single]
TTITLE18=Pity Poor Alfie/Fever [Bitterest Pill b-side]
TTITLE19=But I'm Different Now [1980 demo]
TTITLE20=I Got You (I Feel Good) (James Brown) [1982 demo]
TTITLE21=Hey Mister [1979]
TTITLE22=Saturday's Kids [1979 demo]
TTITLE23=We've Only Started [1992 remix, 1981]
TTITLE24=So Sad About Us (Who) [Down In The Tube Station At Midnight b-side]
TTITLE25=The Eton Rifles [1979 demo, single]
EXTD=
EXTT0=
EXTT1=
EXTT2=
EXTT3=
EXTT4=
EXTT5=
EXTT6=
EXTT7=
EXTT8=
EXTT9=
EXTT10=
EXTT11=
EXTT12=
EXTT13=
EXTT14=
EXTT15=
EXTT16=
EXTT17=
EXTT18=
EXTT19=
EXTT20=
EXTT21=
EXTT22=
EXTT23=
EXTT24=
EXTT25=
PLAYORDER=
